<svg width="109" height="31" viewBox="0 0 109 31" fill="none" xmlns="http://www.w3.org/2000/svg">
<path d="M54.2851 23.1797C54.3473 18.2662 45.8634 15.9782 45.6352 12.2462C46.6309 10.0333 51.8789 10.7459 54.2851 11.9462C53.974 9.03934 53.9325 8.45797 53.808 6.17001L53.7665 6.15125C53.7665 6.09499 53.7665 6.03873 53.7665 5.98247C49.6594 5.26983 45.2825 4.59469 41.3413 6.43256C37.8357 8.15791 36.6741 12.4713 38.7484 15.4719C40.5531 18.1162 44.1002 20.1416 46.0708 22.392C47.8547 26.0678 42.8763 25.749 39.2463 25.5989C38.0431 25.5427 36.7363 23.5548 36.2177 22.5983C34.1019 18.7163 28.6465 8.30794 27.7545 7.18271C24.1659 7.22022 22.7346 7.22022 19.312 7.18271C19.0009 13.2964 18.3786 24.0611 18.1296 30.2686C21.3448 30.2311 21.49 30.2311 24.4771 30.2686C24.56 30.2686 24.643 30.2124 24.643 30.1186C24.7052 26.6116 24.9542 19.8228 25.1409 16.072C25.1409 15.997 25.2238 15.9407 25.3068 15.9407C25.369 15.9407 25.4105 15.9782 25.4313 16.0157C27.5263 20.1041 29.974 23.9486 32.2765 27.9994C33.0648 29.3872 34.0604 30.6062 37.5453 30.7C44.1831 30.85 54.6585 32.069 54.2851 23.1797Z" fill="white"/>
<path d="M0.539324 29.8373C0.394121 27.2867 0.207432 25.2426 0 23.7048C2.48919 25.1488 11.7614 26.9304 9.39669 22.2795C7.48831 20.1416 3.60932 17.6285 2.11581 15.4156C0.0414864 12.415 1.22385 8.10163 4.70871 6.39504C8.62919 4.57592 12.7363 5.2323 17.1339 5.94495C17.2376 8.32668 17.2999 8.88929 17.611 11.8336C15.9101 11.121 14.0847 10.7084 12.197 10.6521C9.93601 10.4834 7.77871 12.19 9.60412 13.9528C11.4295 15.922 14.707 17.7036 16.4079 20.0478C18.7104 22.8046 17.694 27.0054 14.6862 28.9746C10.2057 31.5814 6.07777 30.6999 0.539324 29.8373Z" fill="white"/>
<path d="M36.3628 20.6104L36.4043 19.0538L37.1718 5.04477L37.5867 0C35.7613 0.0187538 34.6411 0.0375076 34.2677 0.0375076C33.438 0.0375076 32.3179 0.0187538 30.9281 0C30.9281 1.31276 30.8659 3.67574 30.7207 7.08893C30.6792 8.12039 30.6377 9.05808 30.5962 9.95826L36.3628 20.6104Z" fill="white"/>
</svg>
