<svg width="20" height="15" viewBox="0 0 20 15" fill="none" xmlns="http://www.w3.org/2000/svg">
<path d="M20 12.6923C20 13.3043 19.7659 13.8913 19.3491 14.3241C18.9324 14.7569 18.3671 15 17.7778 15H2.22222C1.63285 15 1.06762 14.7569 0.650874 14.3241C0.234126 13.8913 0 13.3043 0 12.6923V10.3846H20V12.6923Z" fill="#CE2028"/>
<path d="M0 4.61552H20V10.3848H0V4.61552Z" fill="#22408C"/>
<path d="M17.7778 0H2.22222C1.63285 0 1.06762 0.243131 0.650874 0.675907C0.234126 1.10868 0 1.69565 0 2.30769L0 4.61538H20V2.30769C20 1.69565 19.7659 1.10868 19.3491 0.675907C18.9324 0.243131 18.3671 0 17.7778 0Z" fill="#EEEEEE"/>
</svg>
