<svg width="25" height="18" viewBox="0 0 25 18" fill="none" xmlns="http://www.w3.org/2000/svg">
<path d="M25 15.2308C25 15.9652 24.7073 16.6696 24.1864 17.1889C23.6655 17.7083 22.9589 18 22.2222 18H2.77778C2.04107 18 1.33453 17.7083 0.813592 17.1889C0.292658 16.6696 0 15.9652 0 15.2308V12.4615H25V15.2308Z" fill="#CE2028"/>
<path d="M0 5.53845H25V12.4615H0V5.53845Z" fill="#22408C"/>
<path d="M22.2222 0H2.77778C2.04107 0 1.33453 0.291757 0.813592 0.811089C0.292658 1.33042 0 2.03478 0 2.76923L0 5.53846H25V2.76923C25 2.03478 24.7073 1.33042 24.1864 0.811089C23.6655 0.291757 22.9589 0 22.2222 0Z" fill="white"/>
</svg>
