<svg width="18" height="18" viewBox="0 0 18 18" fill="none" xmlns="http://www.w3.org/2000/svg">
<path d="M7.39047 14.7809C3.29729 14.7809 0 11.4837 0 7.39047C0 3.29729 3.29729 0 7.39047 0C11.4837 0 14.7809 3.29729 14.7809 7.39047C14.7809 11.4837 11.4837 14.7809 7.39047 14.7809ZM7.39047 1.137C3.92264 1.137 1.137 3.92264 1.137 7.39047C1.137 10.8583 3.92264 13.644 7.39047 13.644C10.8583 13.644 13.644 10.8583 13.644 7.39047C13.644 3.92264 10.8583 1.137 7.39047 1.137Z" fill="white"/>
<path d="M12.8949 12.0903L18 17.1954L17.1962 17.9992L12.0911 12.8941L12.8949 12.0903Z" fill="white"/>
</svg>
