<svg width="20" height="15" viewBox="0 0 20 15" fill="none" xmlns="http://www.w3.org/2000/svg">
<path d="M0 2.30767V4.61535H20V2.30767C20 1.69564 19.7659 1.10867 19.3491 0.675902C18.9324 0.243129 18.3671 0 17.7778 0H2.22222C1.63285 0 1.06762 0.243129 0.650874 0.675902C0.234126 1.10867 0 1.69564 0 2.30767H0Z" fill="#0099B5"/>
<path d="M20 12.6921V10.3844H0V12.6921C0 13.3041 0.234126 13.8911 0.650874 14.3239C1.06762 14.7566 1.63285 14.9998 2.22222 14.9998H17.7778C18.3671 14.9998 18.9324 14.7566 19.3491 14.3239C19.7659 13.8911 20 13.3041 20 12.6921Z" fill="#1EB53A"/>
<path d="M0 4.61557H20V5.48095H0V4.61557ZM0 9.51938H20V10.3848H0V9.51938Z" fill="#CE1126"/>
<path d="M0 7.50022V9.51943H20V5.481H0V7.50022Z" fill="#EEEEEE"/>
<path d="M2.33336 2.40031C2.33341 1.97497 2.4785 1.5634 2.7429 1.23856C3.00731 0.913714 3.37394 0.696601 3.7778 0.625711C3.52919 0.581887 3.27435 0.594924 3.03109 0.663913C2.78782 0.732901 2.56198 0.85618 2.36933 1.02515C2.17667 1.19411 2.02183 1.4047 1.91563 1.64221C1.80942 1.87972 1.75439 2.13844 1.75439 2.40031C1.75439 2.66218 1.80942 2.9209 1.91563 3.15841C2.02183 3.39592 2.17667 3.60651 2.36933 3.77548C2.56198 3.94444 2.78782 4.06772 3.03109 4.13671C3.27435 4.2057 3.52919 4.21874 3.7778 4.17491C3.37394 4.10402 3.00731 3.88691 2.7429 3.56207C2.4785 3.23723 2.33341 2.82565 2.33336 2.40031ZM4.93503 3.72895L4.85725 3.4803L4.77947 3.72895H4.52725L4.73114 3.88299L4.65336 4.13164L4.85725 3.97761L5.06058 4.13164L4.9828 3.88299L5.18669 3.72895H4.93503ZM6.43614 3.72895L6.35836 3.4803L6.28058 3.72895H6.02891L6.2328 3.88299L6.15503 4.13164L6.35836 3.97761L6.56225 4.13164L6.48447 3.88299L6.68836 3.72895H6.43614ZM6.35836 2.04031L6.28058 2.28897H6.02891L6.2328 2.443L6.15503 2.69166L6.35836 2.53762L6.56225 2.69166L6.48447 2.443L6.68836 2.28897H6.43614L6.35836 2.04031ZM7.9378 3.72895L7.86003 3.4803L7.78225 3.72895H7.53058L7.73391 3.88299L7.65614 4.13164L7.86003 3.97761L8.06391 4.13164L7.98614 3.88299L8.18947 3.72895H7.9378ZM7.86003 2.04031L7.78225 2.28897H7.53058L7.73391 2.443L7.65614 2.69166L7.86003 2.53762L8.06391 2.69166L7.98614 2.443L8.18947 2.28897H7.9378L7.86003 2.04031ZM7.86003 0.600327L7.78225 0.848979H7.53058L7.73391 1.00302L7.65614 1.25167L7.86003 1.09763L8.06391 1.25167L7.98614 1.00302L8.18947 0.848979H7.9378L7.86003 0.600327ZM9.43947 3.72895L9.36169 3.4803L9.28392 3.72895H9.03169L9.23558 3.88299L9.1578 4.13164L9.36169 3.97761L9.56503 4.13164L9.48725 3.88299L9.69114 3.72895H9.43947ZM9.36169 2.04031L9.28392 2.28897H9.03169L9.23558 2.443L9.1578 2.69166L9.36169 2.53762L9.56503 2.69166L9.48725 2.443L9.69114 2.28897H9.43947L9.36169 2.04031ZM9.36169 0.600327L9.28392 0.848979H9.03169L9.23558 1.00302L9.1578 1.25167L9.36169 1.09763L9.56503 1.25167L9.48725 1.00302L9.69114 0.848979H9.43947L9.36169 0.600327ZM10.9406 3.72895L10.8628 3.4803L10.785 3.72895H10.5334L10.7372 3.88299L10.6595 4.13164L10.8628 3.97761L11.0667 4.13164L10.9889 3.88299L11.1928 3.72895H10.9406ZM10.8628 2.04031L10.785 2.28897H10.5334L10.7372 2.443L10.6595 2.69166L10.8628 2.53762L11.0667 2.69166L10.9889 2.443L11.1928 2.28897H10.9406L10.8628 2.04031ZM10.8628 0.600327L10.785 0.848979H10.5334L10.7372 1.00302L10.6595 1.25167L10.8628 1.09763L11.0667 1.25167L10.9889 1.00302L11.1928 0.848979H10.9406L10.8628 0.600327Z" fill="white"/>
</svg>
